<?xml version="1.0" encoding="UTF-8"?>
<svg width="30px" height="30px" viewBox="0 0 30 30" version="1.1" xmlns="http://www.w3.org/2000/svg" xmlns:xlink="http://www.w3.org/1999/xlink">
    <!-- Generator: sketchtool 57 (101010) - https://sketch.com -->
    <title>66C9A33A-C537-406C-94CF-C3C1C3F07855</title>
    <desc>Created with sketchtool.</desc>
    <g id="Mission-Planner" stroke="none" stroke-width="1" fill="none" fill-rule="evenodd">
        <g id="MP-01.0" transform="translate(-1204.000000, -318.000000)" fill="#EBEDEE">
            <g id="Button-Group-/-Primary-Actions" transform="translate(1184.000000, 298.000000)">
                <g id="Add-Waypoint-Element-/-Floating-Button-/-Standard-Action---Default">
                    <g id="↳-Icon-Icon/waypoint" transform="translate(17.500000, 17.500000)">
                        <path d="M6.52529175,15.4228647 C6.72680681,15.3075981 6.97279283,15.301452 7.17981291,15.4065109 L7.17981291,15.4065109 L14.0009197,18.868099 C14.1318406,18.934539 14.2381427,19.0410254 14.3043557,19.1720613 C14.4761342,19.5120117 14.339804,19.92685 13.9998535,20.0986286 L13.9998535,20.0986286 L9.60786014,22.3179232 C9.54157019,22.3514198 9.48786714,22.4054247 9.45474248,22.4719013 C9.36980698,22.6423551 9.43913327,22.849389 9.60958709,22.9343245 L9.60958709,22.9343245 L22.9881489,29.6007336 C23.2691593,29.7407583 23.4902516,29.9774213 23.6108574,30.2672971 C23.8876515,30.9325704 23.5727268,31.6962668 22.9074535,31.9730608 L22.9074535,31.9730608 L22.3226884,32.2163585 C21.0402913,32.7499135 19.575746,32.6044846 18.423321,31.8291525 L18.423321,31.8291525 L6.19249139,23.6004569 C6.05808048,23.5100275 5.9509006,23.3846269 5.88250594,23.2377734 C5.6749849,22.792195 5.86796853,22.2627533 6.31354694,22.0552323 L6.31354694,22.0552323 L11.2313532,19.7648424 C11.2957405,19.734855 11.3492968,19.6857162 11.3847024,19.6241419 C11.4796336,19.4590461 11.4227539,19.2482526 11.2576582,19.1533214 L11.2576582,19.1533214 L6.24595918,16.2715615 C6.18481853,16.2364052 6.13413701,16.1856089 6.09911917,16.1243889 C5.99016105,15.9339025 6.05625276,15.6911548 6.24673913,15.5821966 L6.24673913,15.5821966 Z M24.5402298,6.9889078 C28.7061709,6.9889078 32.0833333,10.2448923 32.0833333,14.2613528 C32.0833333,19.7156865 24.5402298,27.767322 24.5402298,27.767322 C24.5402298,27.767322 16.9971263,19.7156865 16.9971263,14.2613528 C16.9971263,10.2448923 20.3742888,6.9889078 24.5402298,6.9889078 Z M24.5402297,10.946701 C23.8733779,10.946701 23.2338386,11.2073139 22.7623032,11.6712077 C22.2907677,12.1351016 22.0258619,12.7642767 22.0258619,13.4203217 C22.0258619,14.7864647 23.1515827,15.8939424 24.5402297,15.8939424 C25.2070815,15.8939424 25.8466207,15.6333295 26.3181562,15.1694356 C26.7896916,14.7055418 27.0545974,14.0763667 27.0545974,13.4203217 C27.0545974,12.0541787 25.9288766,10.946701 24.5402297,10.946701 Z M6.93965524,2.91666667 C9.16149048,2.91666667 10.9626438,4.6221823 10.9626438,6.72604245 C10.9626438,9.5830743 6.93965524,13.8005975 6.93965524,13.8005975 C6.93965524,13.8005975 2.91666667,9.5830743 2.91666667,6.72604245 C2.91666667,4.6221823 4.71782,2.91666667 6.93965524,2.91666667 Z M6.93965507,4.89556327 C6.539544,4.89556327 6.15582044,5.05193099 5.87289919,5.3302673 C5.58997794,5.60860361 5.43103444,5.98610866 5.43103444,6.37973564 C5.43103444,7.19942141 6.1064669,7.86390801 6.93965507,7.86390801 C7.33976614,7.86390801 7.7234897,7.7075403 8.00641095,7.42920399 C8.2893322,7.15086768 8.4482757,6.77336263 8.4482757,6.37973564 C8.4482757,5.56004988 7.77284324,4.89556327 6.93965507,4.89556327 Z" id="Combined-Shape"></path>
                    </g>
                </g>
            </g>
        </g>
    </g>
</svg>